<?xml version="1.0" encoding="utf-8"?>
<svg viewBox="457.7957 86.3004 1034.2591 1344.0842" xmlns="http://www.w3.org/2000/svg">
  <g id="g30" transform="matrix(1.3333332538604736, 0, 0, -1.3333332538604736, 945.6679123837966, 250.24750012671578)">
    <path d="m 0,0 -0.887,42.122 c -1.214,60.113 20.719,80.195 52.048,80.825 28.951,0.589 64.36,-18.44 94.922,-34.858 14.328,-7.699 27.516,-14.785 37.431,-18.422 29.772,-10.917 55.167,-12.885 75.335,-4.662 16.5,6.726 30.11,20.644 40.431,42.465 7.677,16.242 31.627,8.012 22.814,-10.682 C 308.938,68.893 290.805,50.812 268.308,41.641 242.002,30.912 210.578,32.856 174.907,45.94 163.336,50.18 149.382,57.685 134.214,65.833 106.287,80.841 73.93,98.22 51.648,97.771 35.027,97.438 23.456,83.759 24.289,42.603 l 0.882,-42.12 z" style="fill:#00314e;fill-opacity:1;fill-rule:evenodd;stroke:none" id="path32"/>
  </g>
  <g id="g34" transform="matrix(1.3333332538604736, 0, 0, -1.3333332538604736, 665.1320811232654, 1304.765666439198)">
    <path d="m 0,0 c -60.86,60.442 -95.316,141.865 -95.621,227.728 5.244,46.007 62.888,469.415 64.352,479.278 5.089,34.344 32.835,58.253 72.757,73.855 88.869,34.725 307.433,34.883 393.83,-4.502 34.158,-15.572 57.468,-38.157 62.094,-69.353 1.462,-9.863 59.106,-433.278 64.35,-479.278 C 561.459,141.865 527.003,60.442 466.141,0 339.638,-125.619 126.503,-125.619 0,0" style="fill:#00314e;fill-opacity:1;fill-rule:evenodd;stroke:none" id="path36"/>
  </g>
  <g id="g38" transform="matrix(1.3333332538604736, 0, 0, -1.3333332538604736, 1380.9686676878482, 1002.9257593000511)">
    <path d="m 0,0 c -3.249,28.225 -7.266,56.562 -11.007,84.725 -6.697,50.367 -13.475,100.716 -20.277,151.065 -7.342,54.377 -14.712,108.747 -22.109,163.112 -3.543,25.986 -6.837,52.143 -10.682,78.075 -2.862,19.295 -48.054,51.746 -73.562,52.746 2.654,-22.904 13.715,-79.21 16.229,-102.116 5.967,-54.363 -33.071,-72.474 -27.151,-126.848 5.489,-50.352 38.533,-122.489 43.93,-172.85 10.43,-97.288 69.478,-158.218 13.553,-253.279 -110.93,-188.57 -392.724,-172.437 -433.657,83.702 -17.547,109.785 2.737,110.128 7.241,152.164 5.4,50.367 41.346,118.148 46.826,168.499 5.917,54.375 -31.658,111.655 -25.694,166.024 2.516,22.919 9.951,58.192 12.596,81.091 -27.805,-6.165 -56.934,-29.996 -59.77,-49.133 -3.845,-25.932 -7.147,-52.089 -10.687,-78.075 -7.397,-54.365 -14.766,-108.735 -22.109,-163.112 -6.799,-50.349 -13.584,-100.698 -20.274,-151.063 -3.747,-28.165 -7.763,-56.502 -11.01,-84.727 0.659,-78.715 32.421,-153.266 88.267,-208.726 116.805,-115.992 314.273,-115.992 431.082,0 C -32.421,-153.266 -0.659,-78.715 0,0" style="fill:#007298;fill-opacity:1;fill-rule:evenodd;stroke:none" id="path40"/>
  </g>
  <g id="g42" transform="matrix(1.3333332538604736, 0, 0, -1.3333332538604736, 1080.8854336210788, 1139.2839054693468)">
    <path d="m 0,0 c -123.502,-65.687 -221.361,34.263 -215.587,31.551 57.001,-26.731 122.505,-54.179 213.841,-8.86 42.024,20.86 72.077,54.508 88.955,93.119 -5.47,-1.178 -13.66,-4.513 -26.884,-9.213 38.121,35.76 49.842,27.82 47.626,-21.816 -6.17,16.301 -8.074,25.37 -11.585,29.24 C 81.722,67.374 48.551,25.823 0,0 m 73.725,635.468 c -92.102,16.804 -228.337,15.645 -314.179,-1.602 -103.494,-20.791 -37.71,-126.672 -26.229,-204.774 10.612,-72.151 -3.012,-119.165 -21.344,-162.199 -55.591,-130.504 -93.728,-354.774 77.029,-430.136 93.126,-41.1 234.939,-43.316 318.574,35.516 107.933,101.742 70.277,245.773 33.739,377.523 -18.882,68.094 -40.192,106.807 -36.306,186.939 2.725,56.114 91.933,176.254 -31.284,198.733" style="fill:#00acdc;fill-opacity:1;fill-rule:evenodd;stroke:none" id="path44"/>
  </g>
  <g id="g46" transform="matrix(1.3333332538604736, 0, 0, -1.3333332538604736, 1166.7225867079105, 293.6596069141524)">
    <path d="M 0,0 C 72.438,-36.995 36.763,-104.18 11.77,-161.174 -2.987,-194.832 -5.055,-223.059 -3.199,-244.52 8.033,-374.611 114.021,-578.957 57.18,-693.948 40.477,-727.736 6.697,-761.096 -37.611,-800.837 c 72.898,30.038 135.254,90.191 143.784,191.607 5.054,60.086 -30.436,168.224 -34.841,209.33 -5.478,51.071 -41.487,113.746 -47.052,164.808 C 18.002,-177.475 142.281,-20.383 0,0" style="fill:#41d9ff;fill-opacity:1;fill-rule:evenodd;stroke:none" id="path48"/>
  </g>
  <g id="g50" transform="matrix(1.3333332538604736, 0, 0, -1.3333332538604736, 480.60544010368176, 669.3379699386422)">
    <path d="m 0,0 c 67.455,2.834 308.545,44.43 340.236,-23.619 9.317,-20.004 54.884,-18.094 62.493,2.622 25.869,70.468 269.596,49.232 337.057,52.064 28.363,1.192 24.397,-50.723 -10.285,-52.095 l 2.17,-51.57 c 3.439,-81.969 -76.387,-134.081 -184.468,-125.292 -58.307,4.745 -117.049,34.407 -137.726,79.749 -18.757,41.141 -52.581,39.719 -67.822,-2.848 -16.804,-46.919 -72.851,-81.396 -130.558,-91.015 -106.96,-17.827 -190.877,27.414 -194.318,109.381 l -2.164,51.574 C -20.061,-52.597 -28.367,-1.189 0,0" style="fill:#00314e;fill-opacity:1;fill-rule:evenodd;stroke:none" id="path52"/>
  </g>
  <g id="g54" transform="matrix(1.3333332538604736, 0, 0, -1.3333332538604736, 895.8235143130878, 734.4395285582868)">
    <path d="m 0,0 c 17.21,-150.149 -160.479,-167.229 -231.983,-110.15 -27.157,21.68 -49.002,102.875 -16.854,122.448 23.041,14.033 69.511,18.706 116.236,20.462 C -67.248,35.217 -3.683,32.146 0,0" style="fill:#ffffff;fill-opacity:1;fill-rule:evenodd;stroke:none" id="path56"/>
  </g>
  <g id="g58" transform="matrix(1.3333332538604736, 0, 0, -1.3333332538604736, 1058.6874368973076, 727.603510085537)">
    <path d="m 0,0 c -4.558,-151.065 173.936,-153.18 240.397,-90.307 25.247,23.88 40.207,106.621 6.531,123.43 C 222.788,45.17 176.093,45.933 129.383,43.767 64.058,40.734 0.976,32.349 0,0" style="fill:#ffffff;fill-opacity:1;fill-rule:evenodd;stroke:none" id="path60"/>
  </g>
  <g id="g62" transform="matrix(1.3333332538604736, 0, 0, -1.3333332538604736, 731.7616751336027, 731.8907819654124)">
    <path d="M 0,0 C 6.535,0.277 12.708,-2.602 17.837,-7.702 9.574,-9.448 3.534,-18.573 3.985,-29.292 c 0.49,-11.686 8.516,-20.838 17.926,-20.443 3.662,0.157 6.997,1.733 9.673,4.294 0.02,-23.059 -12.117,-41.84 -27.89,-42.499 -16.396,-0.691 -30.51,18.438 -31.528,42.724 C -28.854,-20.934 -16.394,-0.688 0,0" style="fill:#00314e;fill-opacity:1;fill-rule:evenodd;stroke:none" id="path64"/>
  </g>
  <g id="g66" transform="matrix(1.3333332538604736, 0, 0, -1.3333332538604736, 1212.5324798107613, 711.6999465803382)">
    <path d="M 0,0 C 6.535,0.277 12.708,-2.602 17.835,-7.701 9.576,-9.448 3.529,-18.569 3.98,-29.287 c 0.493,-11.686 8.521,-20.843 17.926,-20.446 3.664,0.153 6.999,1.729 9.676,4.292 C 31.6,-68.5 19.465,-87.279 3.691,-87.944 -12.699,-88.63 -26.82,-69.502 -27.836,-45.215 -28.856,-20.929 -16.396,-0.688 0,0" style="fill:#00314e;fill-opacity:1;fill-rule:evenodd;stroke:none" id="path68"/>
  </g>
  <g id="g70" transform="matrix(1.3333332538604736, 0, 0, -1.3333332538604736, 978.9107489440357, 829.7083217079489)">
    <path d="m 0,0 v 0 c 19.884,0.059 36.208,-13.403 36.28,-29.914 l 0.379,-89.533 c 0.067,-16.513 -16.139,-30.071 -36.023,-30.129 -19.884,-0.059 -36.205,13.403 -36.278,29.919 l -0.379,89.531 C -36.09,-13.616 -19.884,-0.059 0,0" style="fill:#00314e;fill-opacity:1;fill-rule:evenodd;stroke:none" id="path72"/>
  </g>
  <g id="g74" transform="matrix(1.3333332538604736, 0, 0, -1.3333332538604736, 634.5546089874915, 617.2494313766947)">
    <path d="m 0,0 c 38.568,47.829 85.771,60.07 145.093,44.252 l 2.179,-33.371 C 91.896,19.474 56.641,17.195 0,0" style="fill:#00314e;fill-opacity:1;fill-rule:evenodd;stroke:none" id="path76"/>
  </g>
  <g id="g78" transform="matrix(1.3333332538604736, 0, 0, -1.3333332538604736, 1296.462162308162, 567.1341999887954)">
    <path d="m 0,0 c -48.366,37.891 -97.115,39.166 -151.334,10.369 l 5.406,-33.001 C -93.92,-1.767 -59.062,3.972 0,0" style="fill:#00314e;fill-opacity:1;fill-rule:evenodd;stroke:none" id="path80"/>
  </g>
  <g id="g82" transform="matrix(1.3333332538604736, 0, 0, -1.3333332538604736, 909.5155707886443, 232.8907303279266)">
    <path d="m 0,0 3.57,17.287 c 2.286,11.1 21.547,14.25 40.445,13.74 18.021,-0.485 35.727,-4.121 37.848,-13.957 l 5.024,-23.3 z" style="fill:#00314e;fill-opacity:1;fill-rule:evenodd;stroke:none" id="path84"/>
  </g>
</svg>